<mxfile host="app.diagrams.net" modified="2023-11-28T03:36:23.859Z" agent="Mozilla/5.0 (Macintosh; Intel Mac OS X 10_15_7) AppleWebKit/537.36 (KHTML, like Gecko) Chrome/119.0.0.0 Safari/537.36" version="22.1.4" etag="SzBnKmE15ptlI1p8GKWF" type="github">
  <diagram name="Страница — 1" id="ApS_Uzb94vvX7HJ8mZMD">
    <mxGraphModel>
      <root>
        <mxCell id="0" />
        <mxCell id="1" parent="0" />
      </root>
    </mxGraphModel>
  </diagram>
</mxfile>
